<mxfile host="65bd71144e">
    <diagram id="pyFOITWGm1L5QSNy7el4" name="Page-1">
        <mxGraphModel dx="1551" dy="669" grid="0" gridSize="10" guides="1" tooltips="1" connect="1" arrows="1" fold="1" page="0" pageScale="1" pageWidth="850" pageHeight="1100" background="#ffffff" math="0" shadow="0">
            <root>
                <mxCell id="0"/>
                <mxCell id="1" parent="0"/>
                <mxCell id="30" value="アイテム格納" style="edgeStyle=none;html=1;strokeColor=#4D4D4D;fontColor=#000000;entryX=0;entryY=0.516;entryDx=0;entryDy=0;entryPerimeter=0;exitX=0.969;exitY=0.5;exitDx=0;exitDy=0;exitPerimeter=0;startArrow=none;verticalAlign=bottom;" parent="1" edge="1" target="31" source="36">
                    <mxGeometry relative="1" as="geometry">
                        <mxPoint x="361" y="250.5" as="sourcePoint"/>
                        <mxPoint x="463.5" y="250" as="targetPoint"/>
                    </mxGeometry>
                </mxCell>
                <mxCell id="31" value="CosmosDB for NoSQL" style="aspect=fixed;html=1;points=[];align=center;image;fontSize=12;image=img/lib/azure2/databases/Azure_Cosmos_DB.svg;" vertex="1" parent="1">
                    <mxGeometry x="554.5" y="203" width="64" height="64" as="geometry"/>
                </mxCell>
                <mxCell id="34" value="StorageAccount" style="aspect=fixed;html=1;points=[];align=center;image;fontSize=12;image=img/lib/azure2/storage/Storage_Accounts.svg;" vertex="1" parent="1">
                    <mxGeometry x="155" y="211" width="65" height="52" as="geometry"/>
                </mxCell>
                <mxCell id="36" value="Functions" style="aspect=fixed;html=1;points=[];align=center;image;fontSize=12;image=img/lib/azure2/compute/Function_Apps.svg;" vertex="1" parent="1">
                    <mxGeometry x="354" y="206" width="68" height="60" as="geometry"/>
                </mxCell>
                <mxCell id="39" value="BlobTrigger&lt;br&gt;or&lt;br&gt;EventGrid&lt;br&gt;でトリガー" style="edgeStyle=none;html=1;strokeColor=#4D4D4D;fontColor=#000000;exitX=1;exitY=0.5;exitDx=0;exitDy=0;exitPerimeter=0;startArrow=none;entryX=0.029;entryY=0.517;entryDx=0;entryDy=0;entryPerimeter=0;verticalAlign=bottom;" edge="1" parent="1">
                    <mxGeometry relative="1" as="geometry">
                        <mxPoint x="220" y="237" as="sourcePoint"/>
                        <mxPoint x="355.972" y="237.01999999999998" as="targetPoint"/>
                    </mxGeometry>
                </mxCell>
                <mxCell id="43" value="検索" style="edgeStyle=none;html=1;verticalAlign=bottom;" edge="1" parent="1" source="42" target="31">
                    <mxGeometry relative="1" as="geometry"/>
                </mxCell>
                <mxCell id="42" value="StaticWebApps&lt;br&gt;" style="aspect=fixed;html=1;points=[];align=center;image;fontSize=12;image=img/lib/azure2/preview/Static_Apps.svg;" vertex="1" parent="1">
                    <mxGeometry x="766" y="207" width="70" height="56.00000000000001" as="geometry"/>
                </mxCell>
                <mxCell id="44" value="StorageAccountに格納したファイルのコンテンツと&lt;br&gt;ベクトル値を保管" style="text;html=1;strokeColor=none;fillColor=none;align=center;verticalAlign=middle;whiteSpace=wrap;rounded=0;fontStyle=1;fontColor=#f10909;" vertex="1" parent="1">
                    <mxGeometry x="510" y="117" width="158.5" height="53" as="geometry"/>
                </mxCell>
                <mxCell id="45" value="OpenAIによる推論に使いたいドキュメントを格納" style="text;html=1;strokeColor=none;fillColor=none;align=center;verticalAlign=middle;whiteSpace=wrap;rounded=0;fontStyle=1;fontColor=#000000;" vertex="1" parent="1">
                    <mxGeometry x="125.13" y="115" width="124.75" height="53" as="geometry"/>
                </mxCell>
                <mxCell id="46" value="ドキュメントをチャンク化＆ベクトル化しCosmosDBに保管" style="text;html=1;strokeColor=none;fillColor=none;align=center;verticalAlign=middle;whiteSpace=wrap;rounded=0;fontStyle=1;fontColor=#000000;" vertex="1" parent="1">
                    <mxGeometry x="320" y="115" width="124.75" height="53" as="geometry"/>
                </mxCell>
                <mxCell id="47" value="Webアプリ" style="text;html=1;strokeColor=none;fillColor=none;align=center;verticalAlign=middle;whiteSpace=wrap;rounded=0;fontStyle=1;fontColor=#000000;" vertex="1" parent="1">
                    <mxGeometry x="738.63" y="117" width="124.75" height="53" as="geometry"/>
                </mxCell>
                <mxCell id="50" value="Azure OpenAI" style="shape=image;verticalLabelPosition=bottom;labelBackgroundColor=default;verticalAlign=top;aspect=fixed;imageAspect=0;image=data:image/svg+xml,PHN2ZyB4bWxucz0iaHR0cDovL3d3dy53My5vcmcvMjAwMC9zdmciIHZpZXdCb3g9IjAgMCAxOCAxOCIgaGVpZ2h0PSIxOCIgd2lkdGg9IjE4IiBpZD0idXVpZC1hZGJkYWU4ZS01YTQxLTQ2ZDEtOGMxOC1hYTczY2RiZmVlMzIiPjxkZWZzPjxyYWRpYWxHcmFkaWVudCBncmFkaWVudFVuaXRzPSJ1c2VyU3BhY2VPblVzZSIgZ3JhZGllbnRUcmFuc2Zvcm09InRyYW5zbGF0ZSgtMTc5MzkuMDMgMjAzNjguMDI5KSByb3RhdGUoNDUpIHNjYWxlKDI1LjA5MSAtMzQuMTQ5KSIgcj0iLjQ1IiBjeT0iNzkzLjE5OSIgY3g9Ii02Ny45ODEiIGlkPSJ1dWlkLTJhNzQwN2FhLWI3ODctNDhkZC1hOTZhLTBkODFhYjZlOTNiYiI+PHN0b3Agc3RvcC1jb2xvcj0iIzgzYjlmOSIgb2Zmc2V0PSIwIi8+PHN0b3Agc3RvcC1jb2xvcj0iIzAwNzhkNCIgb2Zmc2V0PSIxIi8+PC9yYWRpYWxHcmFkaWVudD48L2RlZnM+PHBhdGggc3Ryb2tlLXdpZHRoPSIwIiBmaWxsPSJ1cmwoI3V1aWQtMmE3NDA3YWEtYjc4Ny00OGRkLWE5NmEtMGQ4MWFiNmU5M2JiKSIgZD0ibTAsMi43djEyLjZjMCwxLjQ5MSwxLjIwOSwyLjcsMi43LDIuN2gxMi42YzEuNDkxLDAsMi43LTEuMjA5LDIuNy0yLjdWMi43YzAtMS40OTEtMS4yMDktMi43LTIuNy0yLjdIMi43QzEuMjA5LDAsMCwxLjIwOSwwLDIuN1pNMTAuOCwwdjMuNmMwLDMuOTc2LDMuMjI0LDcuMiw3LjIsNy4yaC0zLjZjLTMuOTc2LDAtNy4xOTksMy4yMjItNy4yLDcuMTk4di0zLjU5OGMwLTMuOTc2LTMuMjI0LTcuMi03LjItNy4yaDMuNmMzLjk3NiwwLDcuMi0zLjIyNCw3LjItNy4yWiIvPjwvc3ZnPg==;" vertex="1" parent="1">
                    <mxGeometry x="775" y="351" width="50" height="50" as="geometry"/>
                </mxCell>
                <mxCell id="51" value="推論" style="edgeStyle=none;html=1;exitX=0.471;exitY=1;exitDx=0;exitDy=0;exitPerimeter=0;entryX=0.5;entryY=0;entryDx=0;entryDy=0;" edge="1" parent="1" source="42" target="50">
                    <mxGeometry relative="1" as="geometry">
                        <mxPoint x="776" y="245" as="sourcePoint"/>
                        <mxPoint x="628.5" y="245" as="targetPoint"/>
                    </mxGeometry>
                </mxCell>
            </root>
        </mxGraphModel>
    </diagram>
</mxfile>